<svg version="1.1" viewBox="0.0 0.0 506.59842519685037 425.6955380577428" fill="none" stroke="none" stroke-linecap="square" stroke-miterlimit="10" xmlns:xlink="http://www.w3.org/1999/xlink" xmlns="http://www.w3.org/2000/svg"><clipPath id="p.0"><path d="m0 0l506.59842 0l0 425.69553l-506.59842 0l0 -425.69553z" clip-rule="nonzero"/></clipPath><g clip-path="url(#p.0)"><path fill="#000000" fill-opacity="0.0" d="m0 0l506.59842 0l0 425.69553l-506.59842 0z" fill-rule="evenodd"/><path fill="#000000" fill-opacity="0.0" d="m-150.74803 -120.049866l808.0945 0l0 665.7953l-808.0945 0z" fill-rule="evenodd"/><path fill="#fa4619" d="m221.27538 400.95013l-172.40625 0q-2.078125 0 -2.078125 -2.609375l0.515625 -365.875q0 -2.609375 2.609375 -2.609375l59.375 0q2.609375 0 2.609375 2.609375l-0.53125 302.85938l109.90625 0q2.59375 0 2.59375 2.609375l0 60.40625q0 2.609375 -2.59375 2.609375zm99.732346 0l-59.890625 0q-2.609375 0 -2.609375 -2.609375l1.046875 -366.39062q0 -2.09375 2.078125 -2.09375l102.609375 0q48.953125 0 77.46875 29.828125q28.515625 29.812504 28.515625 81.109375q0 37.5 -14.84375 65.359375q-15.109375 27.609375 -39.0625 42.71875q-23.953125 15.09375 -52.078125 15.09375l-40.625 0l0 134.375q0 2.609375 -2.609375 2.609375zm43.234375 -307.8125l-40.625 0.53125l0 105.71875l40.625 0q16.921875 0 29.421875 -16.265625q12.5 -16.28125 12.5 -42.328125q0 -20.828125 -11.203125 -34.234375q-11.1875 -13.421875 -30.71875 -13.421875z" fill-rule="nonzero"/></g></svg>